<?xml version="1.0" encoding="utf-8"?>
<!-- Generator: Adobe Illustrator 24.0.1, SVG Export Plug-In . SVG Version: 6.00 Build 0)  -->
<svg version="1.1" id="Layer_1" xmlns="http://www.w3.org/2000/svg" xmlns:xlink="http://www.w3.org/1999/xlink" x="0px" y="0px"
	 viewBox="0 0 1266 337" style="enable-background:new 0 0 1266 337;" xml:space="preserve">
<style type="text/css">
	.st0{fill-rule:evenodd;clip-rule:evenodd;fill:#3A8DDE;}
	.st1{fill-rule:evenodd;clip-rule:evenodd;fill:#FFB71B;}
	.st2{fill-rule:evenodd;clip-rule:evenodd;fill:#004876;}
	.st3{fill:#3A8DDE;}
</style>
<g>
	<g>
		<path class="st0" d="M282.87,111.54h134.05l-11.34,29.53c-6.35,16.24-25.19,29.54-41.43,29.54H262.3h-10.69
			c-41.77,3.55-38.39,50.63-82.5,54.61c-1.3,0.16-2.59,0.24-3.87,0.24H47.54l11.33-29.54c6.35-16.24,25.04-29.54,41.29-29.54h81.86
			h10.57c38.71-3.29,48.17-43.64,79.27-52.99C275.53,112.2,279.26,111.54,282.87,111.54z"/>
		<path class="st1" d="M301.73,33.39h107.22l-11.4,29.54c-6.34,16.23-24.84,29.54-41.07,29.54h-11.51h-74.5
			c-41.77,3.55-38.39,50.63-82.5,54.61c-1.3,0.16-2.59,0.24-3.87,0.24h-68.67l11.34-29.54c6.35-16.24,25.03-29.53,41.27-29.53h32.82
			h10.57c38.71-3.29,48.17-43.64,79.27-52.99C294.38,34.05,298.11,33.39,301.73,33.39z"/>
		<path class="st2" d="M266.56,189.68h63.39l-11.32,29.54c-6.35,16.24-25.06,29.54-41.3,29.54H246h-10.69
			c-41.77,3.55-38.39,50.63-82.5,54.61c-1.3,0.16-2.59,0.24-3.87,0.24H55.55l11.28-29.54c6.35-16.24,25.09-29.54,41.34-29.54h57.54
			h10.56c38.71-3.29,48.17-43.65,79.27-52.99C259.22,190.35,262.95,189.68,266.56,189.68z"/>
	</g>
	<g>
		<path class="st3" d="M507.59,105.09h-38.02V88.24h95.3v16.85H526.6v143.67h-19.01V105.09z"/>
		<path class="st3" d="M585.79,88.24h82.54v16.85h-63.29v53.18h61.61v16.85h-61.61v56.55h63.29v17.09h-82.54V88.24z"/>
		<path class="st3" d="M689.27,88.24h19.25v143.43h57.99v17.09h-77.25V88.24z"/>
		<path class="st3" d="M948.92,184.5h-23.1v64.25h-19.25V88.24h49.09c25.75,0,44.04,18.53,44.04,47.89
			c0,28.64-15.94,42.96-31.82,45.85l33.51,66.77h-21.66L948.92,184.5z M953.49,105.09h-27.67v62.57h27.67
			c16.61,0,26.47-12.99,26.47-31.28C979.97,118.08,970.1,105.09,953.49,105.09z"/>
		<path class="st3" d="M1015.97,88.24h18.91v106.85c0,24.35,11.58,36.88,31.68,36.88c20.09,0,31.91-12.53,31.91-36.88V88.24h18.67
			v106.61c0,34.75-18.67,53.9-50.59,53.9c-31.68,0-50.59-19.15-50.59-53.9V88.24z"/>
		<path class="st3" d="M1135.18,215.02c7.91,9.54,20.94,17.22,36.06,17.22c19.54,0,28.38-12.1,28.38-25.36
			c0-17.68-14.65-24.89-30.71-32.57c-18.61-8.84-39.31-18.15-39.31-45.36c0-23.73,18.61-40.71,44.43-40.71
			c17.22,0,31.17,5.82,41.41,16.28l-9.77,13.96c-8.37-9.31-19.77-13.73-32.1-13.73c-14.19,0-25.12,9.31-25.12,23.26
			c0,14.65,13.72,21.4,29.08,28.84c19.31,9.31,40.94,19.77,40.94,48.85c0,22.8-15.12,43.03-47.22,43.03
			c-20.24,0-35.82-7.68-46.29-19.54L1135.18,215.02z"/>
		<path class="st3" d="M847.97,88.24h-22.86l-48.13,160.51h19.97l8.18-28.72l4.81-18.66h53.19l4.73,18.36l8.26,29.02h19.97
			L847.97,88.24z M836.42,106.53l22.13,78H814.5L836.42,106.53z"/>
	</g>
</g>
</svg>
